<svg width="1000" height="1000" xmlns="http://www.w3.org/2000/svg"><defs><clipPath id="a"><path d="M655 891h55v11h-55zm0 0"/></clipPath><clipPath id="b"><path d="m206.76 580-54.05-6 52.32-4.56z"/></clipPath><clipPath id="c"><path d="m206.76 580-54.05-6 52.32-4.56z"/></clipPath><clipPath id="e"><path d="M1152 695h135v373h-135zm0 0"/></clipPath><clipPath id="f"><path d="M737.59 745.96c-67.88-61.34-88.45-132.15-88.46-195.46-.01-97.34 48.61-176.91 48.61-176.91s-82.84 200.27 85.85 329.5c-13.01 17.55-28.69 31.63-46 42.87"/></clipPath><clipPath id="g"><path d="M737.59 745.96c-67.88-61.34-88.45-132.15-88.46-195.46-.01-97.34 48.61-176.91 48.61-176.91s-82.84 200.27 85.85 329.5c-13.01 17.55-28.69 31.63-46 42.87"/></clipPath><clipPath id="i"><path d="M783 750h55v297h-55zm0 0"/></clipPath><clipPath id="j"><path d="m334.84 724.94-.08-.06c-101.88-133.65-32.09-262.92-10.93-295.98v-.01c-21.14 33.04-90.95 162.35 11.01 296.05"/></clipPath><clipPath id="k"><path d="m334.84 724.94-.08-.06c-101.88-133.65-32.09-262.92-10.93-295.98v-.01c-21.14 33.04-90.95 162.35 11.01 296.05"/></clipPath><clipPath id="m"><path d="M741 750h97v297h-97zm0 0"/></clipPath><clipPath id="n"><path d="M334.75 724.88v-.01c-189.67-145.98-48.84-267.93-10.93-295.98-21.16 33.07-90.95 162.34 10.93 295.99"/></clipPath><clipPath id="o"><path d="M334.75 724.88v-.01c-189.67-145.98-48.84-267.93-10.93-295.98-21.16 33.07-90.95 162.34 10.93 295.99"/></clipPath><clipPath id="q"><path d="M835 744h1v1h-1zm0 0"/></clipPath><clipPath id="r"><path d="M332.51 422.85v-.01zm0-.01"/></clipPath><clipPath id="s"><path d="M332.51 422.85v-.01zm0-.01"/></clipPath><clipPath id="t"><path d="M876 780h159v329H876zm0 0"/></clipPath><clipPath id="u"><path d="M531.18 786.54c-26.5-1.07-48.74-.71-61.26-8.35.79.39 1.54.71 2.24.95.1.02 10.35 2.17 27.28 4.32 8.9 1.13 19.65 2.26 31.74 3.08m-76.05-19.75c-68.86-61.2-127.39-225.15-30.14-308.29-109.14 106.36-17.12 262.73 30.14 308.29"/></clipPath><clipPath id="v"><path d="M531.18 786.54c-26.5-1.07-48.74-.71-61.26-8.35.79.39 1.54.71 2.24.95.1.02 10.35 2.17 27.28 4.32 8.9 1.13 19.65 2.26 31.74 3.08m-76.05-19.75c-68.86-61.2-127.39-225.15-30.14-308.29-109.14 106.36-17.12 262.73 30.14 308.29"/></clipPath><clipPath id="x"><path d="M876 780h175v330H876zm0 0"/></clipPath><clipPath id="y"><path d="M546.93 787.38c-5.38-.38-10.65-.64-15.75-.84-12.09-.82-22.84-1.95-31.74-3.08-16.93-2.15-27.18-4.3-27.28-4.32-.7-.24-1.45-.56-2.24-.95-.32-.2-.64-.4-.96-.61-4.63-3.11-9.25-6.72-13.83-10.79-47.26-45.56-139.28-201.93-30.14-308.29 0 0-77.94 167.34 121.94 328.88m-74.77-8.24"/></clipPath><clipPath id="z"><path d="M546.93 787.38c-5.38-.38-10.65-.64-15.75-.84-12.09-.82-22.84-1.95-31.74-3.08-16.93-2.15-27.18-4.3-27.28-4.32-.7-.24-1.45-.56-2.24-.95-.32-.2-.64-.4-.96-.61-4.63-3.11-9.25-6.72-13.83-10.79-47.26-45.56-139.28-201.93-30.14-308.29 0 0-77.94 167.34 121.94 328.88m-74.77-8.24"/></clipPath><linearGradient id="d" x1="0" x2="1" y1=".46" y2=".54"><stop offset="0" stop-color="#F37116"/><stop offset=".06" stop-color="#F37116"/><stop offset=".08" stop-color="#F37216"/><stop offset=".09" stop-color="#F37216"/><stop offset=".11" stop-color="#F37216"/><stop offset=".13" stop-color="#F37316"/><stop offset=".16" stop-color="#F47416"/><stop offset=".17" stop-color="#F47416"/><stop offset=".19" stop-color="#F47516"/><stop offset=".2" stop-color="#F47516"/><stop offset=".22" stop-color="#F47516"/><stop offset=".25" stop-color="#F47617"/><stop offset=".28" stop-color="#F47717"/><stop offset=".3" stop-color="#F47717"/><stop offset=".31" stop-color="#F47817"/><stop offset=".33" stop-color="#F57817"/><stop offset=".34" stop-color="#F57917"/><stop offset=".38" stop-color="#F57917"/><stop offset=".39" stop-color="#F57A17"/><stop offset=".41" stop-color="#F57A18"/><stop offset=".42" stop-color="#F57B18"/><stop offset=".44" stop-color="#F57B18"/><stop offset=".45" stop-color="#F57C18"/><stop offset=".47" stop-color="#F57C18"/><stop offset=".48" stop-color="#F57D18"/><stop offset=".5" stop-color="#F57D18"/><stop offset=".52" stop-color="#F57E18"/><stop offset=".53" stop-color="#F57F19"/><stop offset=".55" stop-color="#F57F19"/><stop offset=".56" stop-color="#F58019"/><stop offset=".59" stop-color="#F58119"/><stop offset=".61" stop-color="#F68219"/><stop offset=".63" stop-color="#F68219"/><stop offset=".64" stop-color="#F6821A"/><stop offset=".66" stop-color="#F6831A"/><stop offset=".69" stop-color="#F6831A"/><stop offset=".7" stop-color="#F6841A"/><stop offset=".72" stop-color="#F6851A"/><stop offset=".75" stop-color="#F6861A"/><stop offset=".77" stop-color="#F6861A"/><stop offset=".78" stop-color="#F6861A"/><stop offset=".8" stop-color="#F6871A"/><stop offset=".81" stop-color="#F6881A"/><stop offset=".84" stop-color="#F6881A"/><stop offset=".88" stop-color="#F6891B"/><stop offset=".89" stop-color="#F6891B"/><stop offset=".91" stop-color="#F68A1B"/><stop offset=".94" stop-color="#F68B1B"/><stop offset=".95" stop-color="#F68B1B"/><stop offset=".97" stop-color="#F68C1B"/><stop offset=".98" stop-color="#F68C1B"/><stop offset="1" stop-color="#F68D1B"/></linearGradient><linearGradient id="h" x1=".39" x2=".7" y1=".07" y2=".91"><stop offset="0" stop-color="#F37116"/><stop offset=".13" stop-color="#F37116"/><stop offset=".16" stop-color="#F37116"/><stop offset=".17" stop-color="#F37116"/><stop offset=".19" stop-color="#F37216"/><stop offset=".2" stop-color="#F37216"/><stop offset=".22" stop-color="#F37316"/><stop offset=".25" stop-color="#F47416"/><stop offset=".28" stop-color="#F47416"/><stop offset=".3" stop-color="#F47516"/><stop offset=".31" stop-color="#F47616"/><stop offset=".33" stop-color="#F47617"/><stop offset=".34" stop-color="#F47617"/><stop offset=".36" stop-color="#F47717"/><stop offset=".38" stop-color="#F47717"/><stop offset=".39" stop-color="#F47817"/><stop offset=".41" stop-color="#F57817"/><stop offset=".42" stop-color="#F57917"/><stop offset=".44" stop-color="#F57917"/><stop offset=".45" stop-color="#F57A18"/><stop offset=".47" stop-color="#F57A18"/><stop offset=".48" stop-color="#F57B18"/><stop offset=".5" stop-color="#F57B18"/><stop offset=".52" stop-color="#F57C18"/><stop offset=".53" stop-color="#F57C18"/><stop offset=".55" stop-color="#F57D18"/><stop offset=".56" stop-color="#F57E18"/><stop offset=".58" stop-color="#F57E19"/><stop offset=".59" stop-color="#F57F19"/><stop offset=".61" stop-color="#F58019"/><stop offset=".63" stop-color="#F58019"/><stop offset=".64" stop-color="#F58119"/><stop offset=".66" stop-color="#F68119"/><stop offset=".67" stop-color="#F68219"/><stop offset=".69" stop-color="#F6821A"/><stop offset=".7" stop-color="#F6831A"/><stop offset=".72" stop-color="#F68419"/><stop offset=".73" stop-color="#F6841A"/><stop offset=".75" stop-color="#F6841A"/><stop offset=".78" stop-color="#F6851A"/><stop offset=".8" stop-color="#F6861A"/><stop offset=".81" stop-color="#F6861A"/><stop offset=".83" stop-color="#F6871A"/><stop offset=".84" stop-color="#F6881A"/><stop offset=".88" stop-color="#F6881B"/><stop offset=".91" stop-color="#F6891B"/><stop offset=".92" stop-color="#F68A1B"/><stop offset=".94" stop-color="#F68A1B"/><stop offset=".95" stop-color="#F68B1B"/><stop offset=".97" stop-color="#F68B1B"/><stop offset="1" stop-color="#F68C1B"/></linearGradient><linearGradient id="l" x1=".7" x2=".33" y1=".1" y2=".91"><stop offset="0" stop-color="#F37116"/><stop offset=".13" stop-color="#F37116"/><stop offset=".19" stop-color="#F37116"/><stop offset=".22" stop-color="#F37116"/><stop offset=".22" stop-color="#F37016"/><stop offset=".23" stop-color="#F27016"/><stop offset=".23" stop-color="#F17017"/><stop offset=".23" stop-color="#F06F17"/><stop offset=".24" stop-color="#EF6F17"/><stop offset=".24" stop-color="#ED6E17"/><stop offset=".25" stop-color="#EC6E18"/><stop offset=".25" stop-color="#EB6E18"/><stop offset=".25" stop-color="#EA6E18"/><stop offset=".26" stop-color="#E96E18"/><stop offset=".26" stop-color="#E86D19"/><stop offset=".27" stop-color="#E66C19"/><stop offset=".27" stop-color="#E56C19"/><stop offset=".27" stop-color="#E46C19"/><stop offset=".28" stop-color="#E36B1A"/><stop offset=".28" stop-color="#E26B1A"/><stop offset=".29" stop-color="#E06A1A"/><stop offset=".29" stop-color="#DF6A1A"/><stop offset=".29" stop-color="#DE6A1B"/><stop offset=".3" stop-color="#DD6A1B"/><stop offset=".3" stop-color="#DC691B"/><stop offset=".3" stop-color="#DB691B"/><stop offset=".31" stop-color="#DA691B"/><stop offset=".31" stop-color="#D9681B"/><stop offset=".32" stop-color="#D8681C"/><stop offset=".32" stop-color="#D6681C"/><stop offset=".32" stop-color="#D5681C"/><stop offset=".33" stop-color="#D4681C"/><stop offset=".33" stop-color="#D3671C"/><stop offset=".34" stop-color="#D1671C"/><stop offset=".34" stop-color="#D0661C"/><stop offset=".34" stop-color="#CF661D"/><stop offset=".35" stop-color="#CE661D"/><stop offset=".35" stop-color="#CD651D"/><stop offset=".36" stop-color="#CC651D"/><stop offset=".36" stop-color="#CB641D"/><stop offset=".36" stop-color="#CA641D"/><stop offset=".37" stop-color="#C9641D"/><stop offset=".37" stop-color="#C7631D"/><stop offset=".38" stop-color="#C6631D"/><stop offset=".38" stop-color="#C4631D"/><stop offset=".38" stop-color="#C3621D"/><stop offset=".39" stop-color="#C2621D"/><stop offset=".39" stop-color="#C1621D"/><stop offset=".39" stop-color="#BF611D"/><stop offset=".4" stop-color="#BE611E"/><stop offset=".4" stop-color="#BD601E"/><stop offset=".41" stop-color="#BC601E"/><stop offset=".41" stop-color="#BA5F1E"/><stop offset=".41" stop-color="#B95F1E"/><stop offset=".42" stop-color="#B85F1E"/><stop offset=".42" stop-color="#B75E1E"/><stop offset=".43" stop-color="#B55E1E"/><stop offset=".43" stop-color="#B45D1E"/><stop offset=".43" stop-color="#B35D1E"/><stop offset=".44" stop-color="#B25C1E"/><stop offset=".44" stop-color="#B15C1E"/><stop offset=".45" stop-color="#B05C1E"/><stop offset=".45" stop-color="#AF5C1E"/><stop offset=".45" stop-color="#AE5B1E"/><stop offset=".46" stop-color="#AC5B1E"/><stop offset=".46" stop-color="#AB5A1E"/><stop offset=".46" stop-color="#A95A1E"/><stop offset=".47" stop-color="#A8591E"/><stop offset=".47" stop-color="#A7591E"/><stop offset=".48" stop-color="#A5591E"/><stop offset=".48" stop-color="#A4581F"/><stop offset=".48" stop-color="#A3581F"/><stop offset=".49" stop-color="#A2571F"/><stop offset=".49" stop-color="#A0571F"/><stop offset=".5" stop-color="#9F561F"/><stop offset=".5" stop-color="#9E561F"/><stop offset=".5" stop-color="#9D551F"/><stop offset=".51" stop-color="#9C5520"/><stop offset=".51" stop-color="#9B5520"/><stop offset=".52" stop-color="#995420"/><stop offset=".52" stop-color="#985420"/><stop offset=".52" stop-color="#975420"/><stop offset=".53" stop-color="#965320"/><stop offset=".53" stop-color="#945321"/><stop offset=".54" stop-color="#935221"/><stop offset=".54" stop-color="#925221"/><stop offset=".54" stop-color="#915121"/><stop offset=".55" stop-color="#905121"/><stop offset=".55" stop-color="#8F5022"/><stop offset=".55" stop-color="#8D5022"/><stop offset=".56" stop-color="#8C5022"/><stop offset=".56" stop-color="#8B4F23"/><stop offset=".57" stop-color="#8A4F23"/><stop offset=".57" stop-color="#884E24"/><stop offset=".57" stop-color="#874E24"/><stop offset=".58" stop-color="#864D24"/><stop offset=".58" stop-color="#854D24"/><stop offset=".59" stop-color="#844D24"/><stop offset=".59" stop-color="#834C24"/><stop offset=".59" stop-color="#814C24"/><stop offset=".6" stop-color="#804C24"/><stop offset=".6" stop-color="#7F4B24"/><stop offset=".61" stop-color="#7E4B25"/><stop offset=".61" stop-color="#7C4A25"/><stop offset=".61" stop-color="#7B4A25"/><stop offset=".62" stop-color="#7A4A25"/><stop offset=".62" stop-color="#794926"/><stop offset=".63" stop-color="#784926"/><stop offset=".63" stop-color="#774927"/><stop offset=".63" stop-color="#764827"/><stop offset=".64" stop-color="#754827"/><stop offset=".64" stop-color="#744828"/><stop offset=".64" stop-color="#724728"/><stop offset=".65" stop-color="#714728"/><stop offset=".65" stop-color="#704628"/><stop offset=".66" stop-color="#6F4628"/><stop offset=".66" stop-color="#6D4528"/><stop offset=".66" stop-color="#6C4528"/><stop offset=".67" stop-color="#6B4428"/><stop offset=".67" stop-color="#6A4428"/><stop offset=".68" stop-color="#694429"/><stop offset=".68" stop-color="#684329"/><stop offset=".68" stop-color="#674329"/><stop offset=".69" stop-color="#664329"/><stop offset=".69" stop-color="#644229"/><stop offset=".7" stop-color="#63422A"/><stop offset=".7" stop-color="#62412A"/><stop offset=".7" stop-color="#61412A"/><stop offset=".71" stop-color="#60402A"/><stop offset=".71" stop-color="#5E402A"/><stop offset=".71" stop-color="#5D402A"/><stop offset=".72" stop-color="#5C3F2A"/><stop offset=".72" stop-color="#5B3F2A"/><stop offset=".73" stop-color="#5A3E2A"/><stop offset=".73" stop-color="#583E2B"/><stop offset=".73" stop-color="#573E2B"/><stop offset=".74" stop-color="#563E2B"/><stop offset=".74" stop-color="#553D2B"/><stop offset=".75" stop-color="#543D2B"/><stop offset=".75" stop-color="#533C2B"/><stop offset=".75" stop-color="#513C2B"/><stop offset=".76" stop-color="#503B2C"/><stop offset=".76" stop-color="#4F3B2B"/><stop offset=".77" stop-color="#4E3A2B"/><stop offset=".77" stop-color="#4D3A2C"/><stop offset=".77" stop-color="#4C392C"/><stop offset=".78" stop-color="#4B392C"/><stop offset=".78" stop-color="#4A392C"/><stop offset=".79" stop-color="#48392C"/><stop offset=".79" stop-color="#47382C"/><stop offset=".79" stop-color="#46382C"/><stop offset=".8" stop-color="#45372D"/><stop offset=".8" stop-color="#44372D"/><stop offset=".8" stop-color="#43372D"/><stop offset=".81" stop-color="#43372D"/><stop offset=".88" stop-color="#43372D"/><stop offset="1" stop-color="#43372D"/></linearGradient><linearGradient id="p" x1=".77" x2=".46" y1=".15" y2=".92"><stop offset="0" stop-color="#F37116"/><stop offset=".13" stop-color="#F37116"/><stop offset=".19" stop-color="#F37116"/><stop offset=".2" stop-color="#F37116"/><stop offset=".21" stop-color="#F37116"/><stop offset=".22" stop-color="#F37116"/><stop offset=".23" stop-color="#F37216"/><stop offset=".24" stop-color="#F37316"/><stop offset=".25" stop-color="#F47316"/><stop offset=".27" stop-color="#F47416"/><stop offset=".27" stop-color="#F47516"/><stop offset=".28" stop-color="#F47516"/><stop offset=".3" stop-color="#F47617"/><stop offset=".31" stop-color="#F47617"/><stop offset=".32" stop-color="#F47717"/><stop offset=".33" stop-color="#F47817"/><stop offset=".34" stop-color="#F47817"/><stop offset=".35" stop-color="#F57917"/><stop offset=".36" stop-color="#F57918"/><stop offset=".37" stop-color="#F57A18"/><stop offset=".38" stop-color="#F57A18"/><stop offset=".38" stop-color="#F57B18"/><stop offset=".39" stop-color="#F57B18"/><stop offset=".4" stop-color="#F57C18"/><stop offset=".41" stop-color="#F57C18"/><stop offset=".41" stop-color="#F57D18"/><stop offset=".42" stop-color="#F57E18"/><stop offset=".43" stop-color="#F57E19"/><stop offset=".44" stop-color="#F57F19"/><stop offset=".45" stop-color="#F58019"/><stop offset=".46" stop-color="#F58119"/><stop offset=".47" stop-color="#F68119"/><stop offset=".48" stop-color="#F68219"/><stop offset=".48" stop-color="#F6821A"/><stop offset=".49" stop-color="#F6831A"/><stop offset=".5" stop-color="#F68419"/><stop offset=".51" stop-color="#F6841A"/><stop offset=".52" stop-color="#F6841A"/><stop offset=".53" stop-color="#F6851A"/><stop offset=".54" stop-color="#F6861A"/><stop offset=".55" stop-color="#F6861A"/><stop offset=".55" stop-color="#F6871A"/><stop offset=".56" stop-color="#F6871A"/><stop offset=".58" stop-color="#F6881B"/><stop offset=".59" stop-color="#F6891B"/><stop offset=".6" stop-color="#F68A1B"/><stop offset=".61" stop-color="#F68A1B"/><stop offset=".62" stop-color="#F68B1B"/><stop offset=".63" stop-color="#F68B1B"/><stop offset=".64" stop-color="#F68C1B"/><stop offset=".66" stop-color="#F68D1B"/><stop offset=".66" stop-color="#F78D1B"/><stop offset=".67" stop-color="#F78E1C"/><stop offset=".69" stop-color="#F78F1C"/><stop offset=".7" stop-color="#F7901B"/><stop offset=".7" stop-color="#F7901B"/><stop offset=".71" stop-color="#F7911B"/><stop offset=".72" stop-color="#F7911B"/><stop offset=".75" stop-color="#F7921B"/><stop offset="1" stop-color="#F7921B"/></linearGradient><linearGradient id="w" x1=".36" x2=".75" y1=".13" y2=".81"><stop offset="0" stop-color="#F37116"/><stop offset=".25" stop-color="#F37116"/><stop offset=".27" stop-color="#F37116"/><stop offset=".27" stop-color="#F37016"/><stop offset=".27" stop-color="#F27016"/><stop offset=".28" stop-color="#F17016"/><stop offset=".28" stop-color="#F17017"/><stop offset=".29" stop-color="#F06F17"/><stop offset=".29" stop-color="#EF6F17"/><stop offset=".29" stop-color="#EE6F17"/><stop offset=".3" stop-color="#EE6E17"/><stop offset=".3" stop-color="#ED6E18"/><stop offset=".3" stop-color="#EC6E18"/><stop offset=".31" stop-color="#EC6E18"/><stop offset=".31" stop-color="#EB6E18"/><stop offset=".32" stop-color="#EA6E18"/><stop offset=".32" stop-color="#E96E18"/><stop offset=".32" stop-color="#E86D19"/><stop offset=".33" stop-color="#E86D19"/><stop offset=".33" stop-color="#E76D19"/><stop offset=".34" stop-color="#E66C19"/><stop offset=".34" stop-color="#E56C19"/><stop offset=".34" stop-color="#E46C19"/><stop offset=".35" stop-color="#E36B1A"/><stop offset=".35" stop-color="#E36B1A"/><stop offset=".36" stop-color="#E26B1A"/><stop offset=".36" stop-color="#E16B1A"/><stop offset=".36" stop-color="#E06A1A"/><stop offset=".37" stop-color="#DF6A1A"/><stop offset=".37" stop-color="#DF6A1B"/><stop offset=".38" stop-color="#DE6A1B"/><stop offset=".38" stop-color="#DD6A1B"/><stop offset=".38" stop-color="#DC691B"/><stop offset=".39" stop-color="#DC691B"/><stop offset=".39" stop-color="#DB691B"/><stop offset=".39" stop-color="#DA691B"/><stop offset=".4" stop-color="#DA691B"/><stop offset=".4" stop-color="#D9681B"/><stop offset=".41" stop-color="#D8681B"/><stop offset=".41" stop-color="#D7681C"/><stop offset=".41" stop-color="#D6681C"/><stop offset=".42" stop-color="#D5681C"/><stop offset=".42" stop-color="#D5681C"/><stop offset=".43" stop-color="#D4681C"/><stop offset=".43" stop-color="#D3671C"/><stop offset=".43" stop-color="#D2671C"/><stop offset=".44" stop-color="#D1671C"/><stop offset=".44" stop-color="#D1661C"/><stop offset=".45" stop-color="#D0661D"/><stop offset=".45" stop-color="#CF661D"/><stop offset=".45" stop-color="#CF661D"/><stop offset=".46" stop-color="#CE661D"/><stop offset=".46" stop-color="#CD651D"/><stop offset=".46" stop-color="#CC651D"/><stop offset=".47" stop-color="#CB651D"/><stop offset=".47" stop-color="#CB641D"/><stop offset=".48" stop-color="#CA641D"/><stop offset=".48" stop-color="#C9641D"/><stop offset=".48" stop-color="#C9641D"/><stop offset=".49" stop-color="#C8631D"/><stop offset=".49" stop-color="#C7631D"/><stop offset=".5" stop-color="#C6631D"/><stop offset=".5" stop-color="#C5631D"/><stop offset=".5" stop-color="#C4631D"/><stop offset=".51" stop-color="#C3621D"/><stop offset=".51" stop-color="#C2621D"/><stop offset=".52" stop-color="#C1621D"/><stop offset=".52" stop-color="#C0621D"/><stop offset=".52" stop-color="#C0611D"/><stop offset=".53" stop-color="#BF611E"/><stop offset=".53" stop-color="#BE611E"/><stop offset=".54" stop-color="#BD601E"/><stop offset=".54" stop-color="#BC601E"/><stop offset=".54" stop-color="#BB601E"/><stop offset=".55" stop-color="#BB5F1E"/><stop offset=".55" stop-color="#BA5F1E"/><stop offset=".55" stop-color="#B95F1E"/><stop offset=".56" stop-color="#B85F1E"/><stop offset=".56" stop-color="#B75E1E"/><stop offset=".57" stop-color="#B65E1E"/><stop offset=".57" stop-color="#B65E1E"/><stop offset=".57" stop-color="#B55D1E"/><stop offset=".58" stop-color="#B45D1E"/><stop offset=".58" stop-color="#B35D1E"/><stop offset=".59" stop-color="#B25C1E"/><stop offset=".59" stop-color="#B25C1E"/><stop offset=".59" stop-color="#B15C1E"/><stop offset=".6" stop-color="#B05C1E"/><stop offset=".6" stop-color="#AF5C1E"/><stop offset=".61" stop-color="#AF5C1E"/><stop offset=".61" stop-color="#AE5C1E"/><stop offset=".61" stop-color="#AD5B1E"/><stop offset=".62" stop-color="#AC5B1E"/><stop offset=".62" stop-color="#AB5B1E"/><stop offset=".63" stop-color="#AA5A1E"/><stop offset=".63" stop-color="#A95A1E"/><stop offset=".63" stop-color="#A85A1E"/><stop offset=".64" stop-color="#A8591E"/><stop offset=".64" stop-color="#A7591E"/><stop offset=".64" stop-color="#A6591E"/><stop offset=".65" stop-color="#A5591E"/><stop offset=".65" stop-color="#A4581F"/><stop offset=".66" stop-color="#A3581F"/><stop offset=".66" stop-color="#A2581F"/><stop offset=".66" stop-color="#A1571F"/><stop offset=".67" stop-color="#A1571F"/><stop offset=".67" stop-color="#A0571F"/><stop offset=".68" stop-color="#A0571F"/><stop offset=".68" stop-color="#9F561F"/><stop offset=".68" stop-color="#9E561F"/><stop offset=".69" stop-color="#9D551F"/><stop offset=".69" stop-color="#9C5520"/><stop offset=".7" stop-color="#9B5520"/><stop offset=".7" stop-color="#9B5520"/><stop offset=".7" stop-color="#9A5420"/><stop offset=".71" stop-color="#995420"/><stop offset=".71" stop-color="#985420"/><stop offset=".71" stop-color="#975420"/><stop offset=".72" stop-color="#965320"/><stop offset=".72" stop-color="#955320"/><stop offset=".73" stop-color="#955321"/><stop offset=".73" stop-color="#945321"/><stop offset=".73" stop-color="#935221"/><stop offset=".74" stop-color="#935221"/><stop offset=".74" stop-color="#925221"/><stop offset=".75" stop-color="#915121"/><stop offset=".75" stop-color="#905121"/><stop offset=".75" stop-color="#8F5122"/><stop offset=".76" stop-color="#8E5022"/><stop offset=".76" stop-color="#8E5022"/><stop offset=".77" stop-color="#8D5022"/><stop offset=".77" stop-color="#8C5022"/><stop offset=".77" stop-color="#8B4F23"/><stop offset=".78" stop-color="#8A4F23"/><stop offset=".78" stop-color="#894F23"/><stop offset=".79" stop-color="#894E24"/><stop offset=".79" stop-color="#884E24"/><stop offset=".79" stop-color="#874E24"/><stop offset=".8" stop-color="#864D24"/><stop offset=".8" stop-color="#854D24"/><stop offset=".8" stop-color="#854D24"/><stop offset=".81" stop-color="#844D24"/><stop offset=".81" stop-color="#834C25"/><stop offset=".82" stop-color="#824C25"/><stop offset=".82" stop-color="#824C25"/><stop offset=".82" stop-color="#814C24"/><stop offset=".83" stop-color="#804C24"/><stop offset=".83" stop-color="#7F4B24"/><stop offset=".84" stop-color="#7E4B24"/><stop offset=".84" stop-color="#7D4B25"/><stop offset=".84" stop-color="#7C4A25"/><stop offset=".85" stop-color="#7C4A25"/><stop offset=".85" stop-color="#7B4A25"/><stop offset=".86" stop-color="#7A4A25"/><stop offset=".86" stop-color="#794A26"/><stop offset=".86" stop-color="#794926"/><stop offset=".87" stop-color="#784926"/><stop offset=".87" stop-color="#784926"/><stop offset=".88" stop-color="#774927"/><stop offset=".88" stop-color="#764827"/><stop offset=".88" stop-color="#754827"/><stop offset=".89" stop-color="#744828"/><stop offset=".89" stop-color="#744828"/><stop offset=".89" stop-color="#734728"/><stop offset=".9" stop-color="#724728"/><stop offset=".9" stop-color="#714728"/><stop offset=".91" stop-color="#704628"/><stop offset=".91" stop-color="#704628"/><stop offset=".91" stop-color="#6F4628"/><stop offset=".92" stop-color="#6E4528"/><stop offset=".92" stop-color="#6D4528"/><stop offset=".93" stop-color="#6C4528"/><stop offset=".93" stop-color="#6B4528"/><stop offset=".93" stop-color="#6A4428"/><stop offset=".94" stop-color="#6A4428"/><stop offset=".94" stop-color="#694428"/><stop offset=".95" stop-color="#684329"/><stop offset=".95" stop-color="#684329"/><stop offset=".95" stop-color="#674329"/><stop offset=".96" stop-color="#664329"/><stop offset=".96" stop-color="#664329"/><stop offset=".96" stop-color="#654229"/><stop offset=".97" stop-color="#64422A"/><stop offset=".97" stop-color="#63422A"/><stop offset=".98" stop-color="#62412A"/><stop offset=".98" stop-color="#62412A"/><stop offset=".98" stop-color="#61412A"/><stop offset=".99" stop-color="#60412A"/><stop offset=".99" stop-color="#5F402A"/><stop offset="1" stop-color="#5E402A"/><stop offset="1" stop-color="#5D402A"/></linearGradient><linearGradient id="A" x1=".35" x2=".73" y1=".14" y2=".81"><stop offset="0" stop-color="#F37116"/><stop offset=".25" stop-color="#F37116"/><stop offset=".28" stop-color="#F37116"/><stop offset=".29" stop-color="#F37116"/><stop offset=".3" stop-color="#F37216"/><stop offset=".31" stop-color="#F37216"/><stop offset=".33" stop-color="#F37316"/><stop offset=".34" stop-color="#F47316"/><stop offset=".34" stop-color="#F47416"/><stop offset=".36" stop-color="#F47416"/><stop offset=".38" stop-color="#F47516"/><stop offset=".39" stop-color="#F47516"/><stop offset=".41" stop-color="#F47516"/><stop offset=".42" stop-color="#F47617"/><stop offset=".44" stop-color="#F47617"/><stop offset=".45" stop-color="#F47717"/><stop offset=".45" stop-color="#F47717"/><stop offset=".47" stop-color="#F47817"/><stop offset=".48" stop-color="#F57817"/><stop offset=".5" stop-color="#F57917"/><stop offset=".52" stop-color="#F57918"/><stop offset=".52" stop-color="#F57A18"/><stop offset=".53" stop-color="#F57A17"/><stop offset=".55" stop-color="#F57B18"/><stop offset=".55" stop-color="#F57B18"/><stop offset=".56" stop-color="#F57C18"/><stop offset=".58" stop-color="#F57C18"/><stop offset=".59" stop-color="#F57D18"/><stop offset=".6" stop-color="#F57D18"/><stop offset=".61" stop-color="#F57E18"/><stop offset=".62" stop-color="#F57E18"/><stop offset=".63" stop-color="#F57F19"/><stop offset=".63" stop-color="#F57F19"/><stop offset=".64" stop-color="#F58019"/><stop offset=".66" stop-color="#F58019"/><stop offset=".67" stop-color="#F58119"/><stop offset=".68" stop-color="#F68119"/><stop offset=".69" stop-color="#F68219"/><stop offset=".7" stop-color="#F68219"/><stop offset=".71" stop-color="#F6821A"/><stop offset=".72" stop-color="#F6831A"/><stop offset=".73" stop-color="#F6831A"/><stop offset=".75" stop-color="#F6841A"/><stop offset=".76" stop-color="#F6841A"/><stop offset=".77" stop-color="#F6851A"/><stop offset=".78" stop-color="#F6851A"/><stop offset=".8" stop-color="#F6861A"/><stop offset=".81" stop-color="#F6861A"/><stop offset=".82" stop-color="#F6861A"/><stop offset=".83" stop-color="#F6871A"/><stop offset=".84" stop-color="#F6881A"/><stop offset=".86" stop-color="#F6881A"/><stop offset=".88" stop-color="#F6891B"/><stop offset=".89" stop-color="#F6891B"/><stop offset=".9" stop-color="#F68A1B"/><stop offset=".91" stop-color="#F68A1B"/><stop offset=".92" stop-color="#F68A1B"/><stop offset=".93" stop-color="#F68B1B"/><stop offset=".94" stop-color="#F68B1B"/><stop offset=".95" stop-color="#F68C1B"/><stop offset=".97" stop-color="#F68C1B"/><stop offset=".98" stop-color="#F68D1B"/><stop offset="1" stop-color="#F78D1B"/></linearGradient></defs><g class="layer"><path d="M724.12 344.61a257 257 0 0 1 55.69 40.15c15.49-24.62 23.55-51.79 22.97-77.92-8.74-2.24-16.66-7.71-21.81-15.97-10.65-17.04-5.46-39.49 11.59-50.13 17.04-10.64 39.48-5.45 50.13 11.59 10.64 17.04 5.45 39.49-11.59 50.13-.85.53-1.7 1.01-2.56 1.45 2.37 29.69-6.72 61.13-25.45 88.97 37.14-21.15 64.27-52.82 75.83-87.97-8.19-5.5-14.37-14.04-16.67-24.44-4.76-21.46 8.78-42.72 30.24-47.48 21.47-4.76 42.72 8.78 47.48 30.25 4.76 21.46-8.78 42.72-30.24 47.48-1.07.23-2.12.42-3.18.57-11.77 44.21-48.12 83.75-98.42 105.15 32.33 42.82 51.51 96.13 51.51 153.91 0 371.24-568.6 299.69-680.55 44.58L52.83 573.92l124.25-39.94c14.99-35.65 42.11-71.41 67.05-95.65 16.17-15.71 33.66-29.59 52.19-41.82-25.26-25.28-41.28-57.39-43.04-95.28-2.29-49.49 20.62-97.55 53.92-133.12 60.88-65.03 150.22-84.94 215.79-35.51l27.31-9.93c46.94-17.09 97.07-19.76 141.26 6.68l1.56.93 1.46 1.07c55.08 40.59 74.44 99.19 53.09 163.94-5.27 16.01-13.62 33.39-23.55 49.32" fill-rule="evenodd"/><path d="M697.73 373.6c73.42 35.05 124.14 109.98 124.14 196.75 0 90.22-35.71 144.07-84.29 175.62-172.26-155.66-39.85-372.37-39.85-372.37M576.7 787.68c-30.89.6-58.28-1.81-77.26-4.22-17.14-2.18-27.43-4.35-27.28-4.32-33.26-11.35-172.19-198.8-47.17-320.64 38.01 12.34 69.62 18.54 110.45 13.2v.01c-75.42 149.75 40.93 315.51 41.26 315.97m-238-57.78c-66.18-36.86-116.81-88.76-131.94-149.89l-54.05-6 52.32-4.56s19.1-84.99 124.3-148.65c3.8 2.44 4.69 3.01 0 0 0 0-115.14 152.3 9.28 309.05z" fill="#F7971D" fill-rule="evenodd"/><g clip-path="url(#a)"><g clip-path="url(#b)"><g clip-path="url(#c)"><path d="m152.74 568.47-.22 11.54 54.24.98.21-11.54zm0 0" fill="url(#d)"/></g></g></g><g clip-path="url(#e)"><g clip-path="url(#f)"><g clip-path="url(#g)"><path d="m770.11 327.86-256.17 75.49 114.44 388.36 256.17-75.49zm0 0" fill="url(#h)"/></g></g></g><g clip-path="url(#i)"><g clip-path="url(#j)"><g clip-path="url(#k)"><path d="m430.42 463.89-185.5-67.92-107.64 293.97 185.5 67.92zm0 0" fill="url(#l)"/></g></g></g><g clip-path="url(#m)"><g clip-path="url(#n)"><g clip-path="url(#o)"><path d="m430.33 463.88-262.82-96.23L49.52 689.89l262.81 96.23zm0 0" fill="url(#p)"/></g></g></g><g clip-path="url(#q)"><g clip-path="url(#r)"><g clip-path="url(#s)"><path d="M332.52 422.84h-.01v.01zm0 0" fill="#F37116"/></g></g></g><g clip-path="url(#t)"><g clip-path="url(#u)"><g clip-path="url(#v)"><path d="M480.76 367.32 176.94 535.31l189.33 342.41 303.82-167.98zm0 0" fill="url(#w)"/></g></g></g><g clip-path="url(#x)"><g clip-path="url(#y)"><g clip-path="url(#z)"><path d="M492.84 360.64 176.59 535.49l193.38 349.73 316.24-174.85zm0 0" fill="url(#A)"/></g></g></g><path d="M478.47 430.68C89.04 382.27 407.2 4.79 530.79 196.42c34.06 57.72 73 130.66 54.48 198.56C335.61 181.52 375 267.41 557.36 423.8c-33.01 15.57-42.13 11.44-78.89 6.88" fill="#FDFDE1" fill-rule="evenodd"/><path d="M520.38 434.75c-294.44-11.72-259.96-178.8-170.83-254.95-1.63 2.65-129.4 191.04 170.83 254.95" fill="#C9CAB2" fill-rule="evenodd"/><path d="M556.9 159.95s50.43 56.72 74.29 186.85c0 0 24.77 12.15 42.78 2.25 0 0 100.85-111.66-1.81-187.3-34.16-20.44-79.49-14.82-115.26-1.8" fill="#FDFDE1" fill-rule="evenodd"/><path d="M556.9 159.95s50.43 56.72 74.29 186.85c0 0 24.77 12.15 42.78 2.25-25.91-143.15-114.08-185.42-114.08-185.42l-.35-4.62c-.89.3-1.77.62-2.64.94" fill="#C9CAB2" fill-rule="evenodd"/><path d="M812.26 259.15c6.97 0 12.61 5.64 12.61 12.61 0 6.96-5.64 12.61-12.61 12.61-6.96 0-12.6-5.65-12.6-12.61 0-6.97 5.64-12.61 12.6-12.61m89.61-3.6c8.95 0 16.21 7.25 16.21 16.21 0 8.95-7.26 16.2-16.21 16.2s-16.21-7.25-16.21-16.2c0-8.96 7.26-16.21 16.21-16.21" fill="#FDFDE1" fill-rule="evenodd"/></g></svg>